HIERARCHY
ROOT Hips
{
  OFFSET 51.063 96.8071 15.5377
  CHANNELS 6 Xposition Yposition Zposition Zrotation Xrotation Yrotation
  JOINT spine
  {
    OFFSET 0 7.96568 0.458067
    CHANNELS 3 Zrotation Xrotation Yrotation
    JOINT spine1
    {
      OFFSET 0 10.2431 0
      CHANNELS 3 Zrotation Xrotation Yrotation
      JOINT spine2
      {
        OFFSET 0 9.81475 0
        CHANNELS 3 Zrotation Xrotation Yrotation
        JOINT Neck
        {
          OFFSET 0 25.1986 1.20138
          CHANNELS 3 Zrotation Xrotation Yrotation
          JOINT Head
          {
            OFFSET 0 7.61315 0
            CHANNELS 3 Zrotation Xrotation Yrotation
            End Site
            {
              OFFSET 0 18.4281 -6.07733
            }
          }
        }
        JOINT RightShoulder
        {
          OFFSET -4.1327 10.5992 -0.575451
          CHANNELS 3 Zrotation Xrotation Yrotation
          JOINT RightArm
          {
            OFFSET 0 13.9018 0
            CHANNELS 3 Zrotation Xrotation Yrotation
            JOINT RightArmRoll
            {
              OFFSET 0 7.01789 0
              CHANNELS 3 Zrotation Xrotation Yrotation
              JOINT RightForeArm
              {
                OFFSET 0 20.4406 0
                CHANNELS 3 Zrotation Xrotation Yrotation
                JOINT RightForeArmRoll
                {
                  OFFSET 0 7.87515 0
                  CHANNELS 3 Zrotation Xrotation Yrotation
                  JOINT RightHand
                  {
                    OFFSET 0 15.8037 0
                    CHANNELS 3 Zrotation Xrotation Yrotation
                    End Site
                    {
                      OFFSET 0 0 0
                    }
                  }
                }
              }
            }
          }
        }
        JOINT LeftShoulder
        {
          OFFSET 4.1327 10.5992 -0.575451
          CHANNELS 3 Zrotation Xrotation Yrotation
          JOINT LeftArm
          {
            OFFSET 0 13.9018 0
            CHANNELS 3 Zrotation Xrotation Yrotation
            JOINT LeftArmRoll
            {
              OFFSET 0 7.01789 0
              CHANNELS 3 Zrotation Xrotation Yrotation
              JOINT LeftForeArm
              {
                OFFSET 0 20.4406 0
                CHANNELS 3 Zrotation Xrotation Yrotation
                JOINT LeftForeArmRoll
                {
                  OFFSET 0 7.87516 0
                  CHANNELS 3 Zrotation Xrotation Yrotation
                  JOINT LeftHand
                  {
                    OFFSET 0 15.8037 0
                    CHANNELS 3 Zrotation Xrotation Yrotation
                    End Site
                    {
                      OFFSET 0 0 0
                    }
                  }
                }
              }
            }
          }
        }
      }
    }
  }
  JOINT RightUpLeg
  {
    OFFSET -7.06048 -1.2947 -1.0861
    CHANNELS 3 Zrotation Xrotation Yrotation
    JOINT RightUpLegRoll
    {
      OFFSET 0 18.5308 0
      CHANNELS 3 Zrotation Xrotation Yrotation
      JOINT RightLeg
      {
        OFFSET 0 -22.9476 0
        CHANNELS 3 Zrotation Xrotation Yrotation
        JOINT RightLegRoll
        {
          OFFSET 0 23.0226 0
          CHANNELS 3 Zrotation Xrotation Yrotation
          JOINT RightFoot
          {
            OFFSET 0 19.1625 0
            CHANNELS 3 Zrotation Xrotation Yrotation
            JOINT RightToeBase
            {
              OFFSET 0 16.0188 0
              CHANNELS 3 Zrotation Xrotation Yrotation
              End Site
              {
                OFFSET 0.00678979 7.75782 -0.894206
              }
            }
          }
        }
      }
    }
  }
  JOINT LeftUpLeg
  {
    OFFSET 7.06048 -1.2947 -1.0861
    CHANNELS 3 Zrotation Xrotation Yrotation
    JOINT LeftUpLegRoll
    {
      OFFSET 0 18.5309 0
      CHANNELS 3 Zrotation Xrotation Yrotation
      JOINT LeftLeg
      {
        OFFSET 0 22.9475 0
        CHANNELS 3 Zrotation Xrotation Yrotation
        JOINT LeftLegRoll
        {
          OFFSET 0 23.2355 0
          CHANNELS 3 Zrotation Xrotation Yrotation
          JOINT LeftFoot
          {
            OFFSET 0 18.9496 0
            CHANNELS 3 Zrotation Xrotation Yrotation
            JOINT LeftToeBase
            {
              OFFSET 0 16.0188 0
              CHANNELS 3 Zrotation Xrotation Yrotation
              End Site
              {
                OFFSET -0.0304289 7.75781 -0.894207
              }
            }
          }
        }
      }
    }
  }
}
MOTION
Frames: 8
Frame Time: 0.00208333
50.7409 96.919 15.8349 1.30435 -3.92028 2.82977 0.0425229 -1.08955 0.0466498 0.0855126 1.8219 0.0933626 0.084467 3.46698 0.092005 -14.5698 21.1519 0.649795 16.6563 -4.0451 -1.9557 17.2533 -9.89176 -5.85663 17.6458 30.9603 104.59 -3.18055e-015 -2.06736e-014 1.59028e-015 -19.5842 80.4839 27.0219 -7.41198e-006 -8.02491e-006 -3.00234 8.0293 -4.95146 0.697677 -25.3036 -10.8147 6.99021 -5.09724 40.9716 -98.4688 1.09211e-007 -3.99743e-009 2.94471e-007 20.9542 71.1269 -21.6179 8.81711e-006 -5.77576e-006 3.00338 -8.02971 -4.9514 -0.697636 173.054 -5.11811 5.41106 180 7.01507e-015 178.761 178.199 5.22761 179.705 1.38561e-006 -8.76477e-006 0.0720415 -18.84 68.0487 19.5796 8.13649 25.2327 -3.48774 -174.178 -3.85738 -1.94805 4.5067e-006 -1.99009e-005 -1.20644 -1.88087 -4.50355 0.00478376 -9.00803e-007 -5.90701e-006 -0.0415181 18.5975 67.7559 -19.3378 -8.13649 25.2327 3.48774 
50.7285 96.9201 15.8399 1.29842 -3.90918 2.81047 0.0439775 -1.09403 0.0448106 0.088409 1.81209 0.0892899 0.0874147 3.45716 0.087883 -14.703 21.0058 0.67697 16.6898 -3.95344 -1.96482 17.3116 -9.87445 -5.83435 17.8945 31.0925 104.474 -1.27222e-014 -3.89618e-014 7.95139e-015 -19.3033 80.3296 26.6581 -7.41198e-006 -8.02491e-006 -3.00235 8.0293 -4.95146 0.697677 -25.4729 -10.8538 7.03247 -5.16476 40.9419 -98.2688 1.09211e-007 -3.99744e-009 2.94471e-007 20.8223 70.9005 -21.4156 8.81711e-006 -5.77576e-006 3.00338 -8.02971 -4.9514 -0.697636 173.062 -5.11326 5.4064 180 7.01507e-015 178.761 178.198 5.21763 179.704 1.38561e-006 -8.76477e-006 0.0720488 -18.8359 68.0439 19.5743 8.13649 25.2327 -3.48774 -174.169 -3.8585 -1.95575 4.5067e-006 -1.99009e-005 -1.20662 -1.88451 -4.49972 0.004571 -9.00803e-007 -5.90701e-006 -0.0415134 18.5987 67.7572 -19.3384 -8.13649 25.2327 3.48774 
50.7253 96.924 15.8356 1.29269 -3.89752 2.79023 0.0454721 -1.09865 0.042977 0.0913847 1.8019 0.0851527 0.0904424 3.44697 0.083694 -14.8298 20.8584 0.704861 16.7138 -3.86077 -1.97211 17.3731 -9.85667 -5.8115 18.1523 31.222 104.344 -3.18055e-015 0 4.77083e-015 -19.0221 80.1722 26.2916 -7.41198e-006 -8.02491e-006 -3.00235 8.0293 -4.95146 0.697677 -25.6485 -10.896 7.07811 -5.23626 40.9177 -98.0652 1.09211e-007 -3.99744e-009 2.94471e-007 20.687 70.6541 -21.2055 8.81711e-006 -5.77576e-006 3.00337 -8.02971 -4.9514 -0.697636 173.07 -5.10822 5.4022 180 7.01507e-015 178.761 178.198 5.20678 179.704 1.38561e-006 -8.76477e-006 0.0720561 -18.8316 68.0389 19.5687 8.13649 25.2327 -3.48774 -174.16 -3.85912 -1.96396 4.5067e-006 -1.99009e-005 -1.20679 -1.88892 -4.49612 0.00429062 -9.00803e-007 -5.90701e-006 -0.0415088 18.5999 67.7584 -19.3389 -8.13649 25.2327 3.48774 
50.7103 96.9235 15.8475 1.28706 -3.88535 2.76932 0.047005 -1.10337 0.0411383 0.0944362 1.79145 0.0809437 0.0935468 3.43652 0.0794308 -14.9508 20.7092 0.733011 16.73 -3.76669 -1.978 17.4383 -9.83859 -5.78833 18.4175 31.3482 104.201 -9.54166e-015 6.36111e-015 -3.18055e-015 -18.7429 80.013 25.9253 -7.41198e-006 -8.02491e-006 -3.00236 8.0293 -4.95146 0.697677 -25.8293 -10.9406 7.12641 -5.31276 40.898 -97.858 1.09211e-007 -3.99742e-009 2.94471e-007 20.5505 70.3908 -20.9904 8.81711e-006 -5.77576e-006 3.00336 -8.02971 -4.9514 -0.697636 173.077 -5.10291 5.39833 180 7.01507e-015 178.76 178.196 5.19532 179.703 1.38561e-006 -8.76477e-006 0.0720635 -18.8272 68.0337 19.5628 8.13649 25.2327 -3.48774 -174.15 -3.85922 -1.97257 4.5067e-006 -1.99009e-005 -1.20698 -1.89391 -4.49272 0.00395927 -9.00803e-007 -5.90701e-006 -0.0415042 18.6009 67.7594 -19.3393 -8.13649 25.2327 3.48774 
50.7048 96.9238 15.8607 1.28143 -3.87273 2.748 0.0485746 -1.10816 0.039284 0.0975599 1.78085 0.0766554 0.0967243 3.42592 0.0750862 -15.0665 20.5576 0.760967 16.7397 -3.67077 -1.98293 17.508 -9.82039 -5.76507 18.6885 31.4708 104.047 -3.18055e-015 -6.36111e-015 6.36111e-015 -18.4678 79.853 25.5618 -7.41198e-006 -8.02491e-006 -3.00236 8.0293 -4.95146 0.697677 -26.0141 -10.987 7.17667 -5.39518 40.882 -97.6467 1.09211e-007 -3.99743e-009 2.94471e-007 20.4146 70.1135 -20.7728 8.81711e-006 -5.77576e-006 3.00336 -8.02971 -4.9514 -0.697636 173.084 -5.0973 5.39469 180 7.01507e-015 178.76 178.195 5.18351 179.703 1.38561e-006 -8.76477e-006 0.0720711 -18.8228 68.0284 19.557 8.13649 25.2327 -3.48774 -174.141 -3.85876 -1.98148 4.5067e-006 -1.99009e-005 -1.20716 -1.89928 -4.4895 0.00359362 -9.00803e-007 -5.90701e-006 -0.0414997 18.6019 67.7603 -19.3396 -8.13649 25.2327 3.48774 
50.6946 96.9248 15.868 1.2757 -3.8597 2.72657 0.0501791 -1.11296 0.0374035 0.100752 1.7702 0.0722803 0.0999717 3.41528 0.0706529 -15.1777 20.4031 0.788275 16.7447 -3.5726 -1.98735 17.5827 -9.80223 -5.74196 18.9639 31.5894 103.883 -3.18055e-015 2.62396e-014 -3.18055e-015 -18.1982 79.6935 25.2034 -7.41198e-006 -8.02491e-006 -3.00237 8.0293 -4.95146 0.697677 -26.2017 -11.0347 7.22818 -5.48448 40.8687 -97.4314 1.09211e-007 -3.99746e-009 2.94471e-007 20.2811 69.8251 -20.5548 8.81711e-006 -5.77576e-006 3.00335 -8.02971 -4.9514 -0.697636 173.091 -5.09134 5.39114 180 7.01507e-015 178.76 178.193 5.17156 179.702 1.38561e-006 -8.76477e-006 0.0720787 -18.8185 68.0233 19.5512 8.13649 25.2327 -3.48774 -174.131 -3.8577 -1.99058 4.5067e-006 -1.99009e-005 -1.20736 -1.90482 -4.48644 0.00321035 -9.00803e-007 -5.90701e-006 -0.0414952 18.6029 67.7612 -19.3398 -8.13649 25.2327 3.48774 
50.6854 96.9215 15.8637 1.26977 -3.84633 2.70529 0.0518169 -1.11775 0.0354862 0.10401 1.75963 0.067811 0.103286 3.4047 0.0661238 -15.2849 20.2452 0.814483 16.7464 -3.47178 -1.99169 17.6631 -9.78426 -5.71924 19.2419 31.7035 103.712 -3.18055e-015 -1.51076e-014 -1.59028e-015 -17.9354 79.5355 24.8519 -7.41198e-006 -8.02491e-006 -3.00238 8.0293 -4.95146 0.697677 -26.391 -11.0828 7.28022 -5.5816 40.8571 -97.2118 1.09211e-007 -3.99743e-009 2.94471e-007 20.1512 69.5285 -20.3384 8.81711e-006 -5.77576e-006 3.00335 -8.02971 -4.9514 -0.697636 173.098 -5.08498 5.38758 180 7.01507e-015 178.76 178.191 5.15974 179.702 1.38561e-006 -8.76477e-006 0.0720865 -18.8145 68.0184 19.5456 8.13649 25.2327 -3.48774 -174.121 -3.85602 -1.99978 4.5067e-006 -1.99009e-005 -1.20756 -1.91033 -4.4835 0.00282613 -9.00803e-007 -5.90701e-006 -0.0414909 18.6038 67.762 -19.34 -8.13649 25.2327 3.48774 
50.6775 96.923 15.8749 1.26354 -3.83267 2.68444 0.0534863 -1.12247 0.0335214 0.10733 1.74923 0.0632401 0.106662 3.3943 0.0614917 -15.3888 20.0833 0.839142 16.7463 -3.36788 -1.99642 17.7498 -9.76668 -5.69714 19.521 31.8129 103.533 -1.90833e-014 -7.15625e-015 -7.95139e-015 -17.6806 79.3803 24.5091 -7.41198e-006 -8.02491e-006 -3.00238 8.0293 -4.95146 0.697677 -26.5808 -11.131 7.33209 -5.68746 40.8464 -96.9879 1.09211e-007 -3.99742e-009 2.94471e-007 20.0263 69.2269 -20.1253 8.81711e-006 -5.77576e-006 3.00334 -8.02971 -4.9514 -0.697636 173.105 -5.07816 5.38388 180 7.01507e-015 178.76 178.189 5.14832 179.702 1.38561e-006 -8.76477e-006 0.0720944 -18.8109 68.0139 19.5404 8.13649 25.2327 -3.48774 -174.111 -3.85369 -2.00897 4.5067e-006 -1.99009e-005 -1.20778 -1.91562 -4.48067 0.00245761 -9.00803e-007 -5.90701e-006 -0.0414866 18.6048 67.7628 -19.3401 -8.13649 25.2327 3.48774 
